<svg width="80" height="80" viewBox="0 0 80 80" fill="none" xmlns="http://www.w3.org/2000/svg">
<g id="Frame 33690" filter="url(#filter0_dd_151072_4040)">
<rect x="16" y="8" width="48" height="48" rx="10" fill="white" shape-rendering="crispEdges"/>
<g id="Subtract" filter="url(#filter1_dd_151072_4040)">
<path d="M42.2438 15.4547C40.8644 14.6583 39.165 14.6583 37.7856 15.4547L26.8004 21.7971C25.421 22.5934 24.5713 24.0652 24.5713 25.6579V38.3426C24.5713 39.9354 25.421 41.4071 26.8004 42.2035L37.7856 48.5459C39.165 49.3422 40.8644 49.3422 42.2438 48.5459L45.632 46.5897V40.7386C44.8807 41.0349 44.0142 41.2813 43.0323 41.4776C41.9961 41.6953 41.0209 41.8042 40.1067 41.8042C38.8006 41.8042 37.599 41.617 36.5018 41.2425C35.4047 40.8681 34.473 40.3631 33.7068 39.7275C32.9406 39.0918 32.2875 38.3517 31.7477 37.5071C31.2165 36.6538 30.8247 35.7526 30.5722 34.8035C30.3197 33.8544 30.1934 32.8748 30.1934 31.8648C30.1934 30.4977 30.4154 29.196 30.8595 27.9596C31.3036 26.7231 31.9175 25.6434 32.7011 24.7205C33.4848 23.7975 34.4556 23.0661 35.6137 22.5262C36.7718 21.9777 38.0213 21.7034 39.3622 21.7034C40.4245 21.7034 41.5085 21.8949 42.6144 22.2781C43.7289 22.6525 44.6083 23.2097 45.2527 23.9499C45.2527 22.6438 45.4225 21.9907 45.7621 21.9907H47.2249C47.6428 21.9907 47.8518 22.4435 47.8518 23.3491V26.5751C47.8518 27.0714 47.8257 27.4371 47.7734 27.6722C47.7299 27.8986 47.6689 28.0423 47.5906 28.1032C47.5209 28.1555 47.399 28.1903 47.2249 28.2077H46.1408C46.0712 28.2077 45.9449 28.1076 45.7621 27.9073C45.5879 27.7071 45.3833 27.4589 45.1482 27.1629C44.9131 26.8581 44.604 26.5316 44.2209 26.1833C43.8464 25.8263 43.4459 25.4998 43.0193 25.2037C42.5926 24.899 42.0745 24.6464 41.465 24.4462C40.8642 24.2459 40.2373 24.1458 39.5842 24.1458C38.7744 24.1458 38.0256 24.2938 37.3377 24.5899C36.6499 24.8772 36.0665 25.269 35.5876 25.7653C35.1087 26.2529 34.6951 26.8276 34.3468 27.4894C34.0072 28.1424 33.7547 28.8347 33.5893 29.5661C33.4325 30.2975 33.3542 31.0463 33.3542 31.8126C33.3542 32.544 33.4456 33.258 33.6284 33.9545C33.82 34.6424 34.1117 35.2955 34.5035 35.9137C34.8954 36.5319 35.3655 37.0761 35.9141 37.5463C36.4714 38.0078 37.1375 38.3778 37.9124 38.6565C38.6961 38.9264 39.545 39.0614 40.4593 39.0614C42.1398 39.0614 43.7811 38.8611 45.3833 38.4606V35.77C45.3833 35.474 45.3615 35.2258 45.318 35.0255C45.2744 34.8166 45.1874 34.6076 45.0568 34.3986C44.9349 34.1896 44.7302 34.0329 44.4429 33.9284C44.1643 33.8239 43.8116 33.7717 43.385 33.7717C43.2195 33.7717 43.1063 33.6977 43.0454 33.5497C42.9931 33.4016 42.967 33.1361 42.967 32.7529C42.967 32.1695 43.1107 31.6471 43.398 31.1856C44.5213 31.2814 45.6271 31.3293 46.7155 31.3293C47.1596 31.3293 47.5993 31.3206 48.0347 31.3032C48.47 31.2771 48.827 31.2509 49.1056 31.2248C49.3843 31.1987 49.5541 31.1856 49.615 31.1856C49.6847 31.2553 49.75 31.4207 49.8109 31.6819C49.8806 31.9345 49.9154 32.1608 49.9154 32.3611C49.9154 32.7007 49.8588 32.9706 49.7456 33.1709C49.6324 33.3624 49.4931 33.5018 49.3277 33.5888C49.171 33.6759 49.0099 33.7673 48.8444 33.8631C48.6877 33.9589 48.5527 34.1243 48.4395 34.3594C48.3263 34.5858 48.2697 34.8949 48.2697 35.2868L48.2768 38.2417H48.3068V45.0453L53.2291 42.2035C54.6084 41.4071 55.4581 39.9354 55.4581 38.3426V25.6579C55.4581 24.0652 54.6084 22.5934 53.2291 21.7971L42.2438 15.4547Z" fill="#9333EA"/>
</g>
</g>
<defs>
<filter id="filter0_dd_151072_4040" x="0" y="0" width="80" height="80" filterUnits="userSpaceOnUse" color-interpolation-filters="sRGB">
<feFlood flood-opacity="0" result="BackgroundImageFix"/>
<feColorMatrix in="SourceAlpha" type="matrix" values="0 0 0 0 0 0 0 0 0 0 0 0 0 0 0 0 0 0 127 0" result="hardAlpha"/>
<feOffset/>
<feGaussianBlur stdDeviation="1"/>
<feComposite in2="hardAlpha" operator="out"/>
<feColorMatrix type="matrix" values="0 0 0 0 0 0 0 0 0 0 0 0 0 0 0 0 0 0 0.12 0"/>
<feBlend mode="normal" in2="BackgroundImageFix" result="effect1_dropShadow_151072_4040"/>
<feColorMatrix in="SourceAlpha" type="matrix" values="0 0 0 0 0 0 0 0 0 0 0 0 0 0 0 0 0 0 127 0" result="hardAlpha"/>
<feOffset dy="8"/>
<feGaussianBlur stdDeviation="8"/>
<feComposite in2="hardAlpha" operator="out"/>
<feColorMatrix type="matrix" values="0 0 0 0 0 0 0 0 0 0 0 0 0 0 0 0 0 0 0.14 0"/>
<feBlend mode="normal" in2="effect1_dropShadow_151072_4040" result="effect2_dropShadow_151072_4040"/>
<feBlend mode="normal" in="SourceGraphic" in2="effect2_dropShadow_151072_4040" result="shape"/>
</filter>
<filter id="filter1_dd_151072_4040" x="8.57129" y="6.85742" width="62.8867" height="66.2861" filterUnits="userSpaceOnUse" color-interpolation-filters="sRGB">
<feFlood flood-opacity="0" result="BackgroundImageFix"/>
<feColorMatrix in="SourceAlpha" type="matrix" values="0 0 0 0 0 0 0 0 0 0 0 0 0 0 0 0 0 0 127 0" result="hardAlpha"/>
<feOffset/>
<feGaussianBlur stdDeviation="1"/>
<feComposite in2="hardAlpha" operator="out"/>
<feColorMatrix type="matrix" values="0 0 0 0 0 0 0 0 0 0 0 0 0 0 0 0 0 0 0.12 0"/>
<feBlend mode="normal" in2="BackgroundImageFix" result="effect1_dropShadow_151072_4040"/>
<feColorMatrix in="SourceAlpha" type="matrix" values="0 0 0 0 0 0 0 0 0 0 0 0 0 0 0 0 0 0 127 0" result="hardAlpha"/>
<feOffset dy="8"/>
<feGaussianBlur stdDeviation="8"/>
<feComposite in2="hardAlpha" operator="out"/>
<feColorMatrix type="matrix" values="0 0 0 0 0 0 0 0 0 0 0 0 0 0 0 0 0 0 0.14 0"/>
<feBlend mode="normal" in2="effect1_dropShadow_151072_4040" result="effect2_dropShadow_151072_4040"/>
<feBlend mode="normal" in="SourceGraphic" in2="effect2_dropShadow_151072_4040" result="shape"/>
</filter>
</defs>
</svg>
